# xmcd
#
# Track frame offsets:
#	150
#	10578
#	25599
#	37309
#	53505
#
# Disc length: 925 seconds
#
# Revision: 1
# Processed by: cddbd v1.5.2PL0 Copyright (c) Steve Scherf et al.
# Submitted via: audiograbber 1.83.01
#
DISCID=2f039b05
DTITLE=Deviltrain - Deviltrain
DYEAR=1900
DGENRE=
TTITLE0=Thorn
TTITLE1=Deviltrain
TTITLE2=Heywah!
TTITLE3=Lazy Crazy Country Boy
TTITLE4=Eighty Bob And A Packet Of Steak
EXTD=
EXTT0=
EXTT1=
EXTT2=
EXTT3=
EXTT4=
PLAYORDER=
